<svg xmlns="http://www.w3.org/2000/svg" width="30" height="30" viewBox="0 0 30 30">
  <g fill="#34313F">
    <path d="M15.8069049,17.0763666 L19.5885187,17.0763666 C20.6639904,17.0763666 21.34444,16.4843248 21.34444,15.5329582 C21.34444,14.6358521 20.6639904,13.9895498 19.5885187,13.9895498 L15.8069049,13.9895498 C15.681654,13.9895498 15.5744681,14.096865 15.5744681,14.2053859 L15.5744681,16.8605305 C15.5913288,16.9859325 15.6804496,17.0763666 15.8069049,17.0763666 Z M15.8069049,23.1945338 L19.7137696,23.1945338 C20.9144922,23.1945338 21.6310719,22.5844051 21.6310719,21.5076367 C21.6310719,20.5743569 20.9506222,19.8207395 19.7137696,19.8207395 L15.8069049,19.8207395 C15.681654,19.8207395 15.5744681,19.9280547 15.5744681,20.0365756 L15.5744681,22.9618167 C15.5913288,23.1053055 15.6804496,23.1945338 15.8069049,23.1945338 Z"/>
    <path d="M29.6423123,0.066318328 L18.4588519,11.22709 L20.2870333,11.22709 C23.1364914,11.22709 24.8213569,13.0213023 24.8213569,14.97709 C24.8213569,16.5204984 23.7820153,17.6503215 22.6704135,18.153135 C22.4909675,18.2254823 22.4909675,18.4762862 22.6884785,18.5474277 C23.978322,19.0502412 24.8924127,20.3959003 24.8924127,21.9742765 C24.8924127,24.198955 23.4050582,25.9750804 20.5194701,25.9750804 L12.5985548,25.9750804 C12.4733039,25.9750804 12.366118,25.8677653 12.366118,25.7592444 L12.366118,17.3078778 L0.089120835,29.5466238 C-0.0722601365,29.7081994 0.0349257326,29.9951768 0.268566841,29.9951768 L29.7856283,29.9951768 C29.8928141,29.9951768 29.9831393,29.9059486 29.9831393,29.7974277 L29.9831393,0.227893891 C30.0361301,0.0301446945 29.7856283,-0.077170418 29.6423123,0.066318328 Z"/>
  </g>
</svg>
