<svg xmlns="http://www.w3.org/2000/svg" width="26" height="30" viewBox="0 0 26 30">
  <g fill="none" fill-rule="evenodd">
    <path fill="#136DA9" fill-rule="nonzero" d="M8.61148438,4.83772881 C3.38304688,7.06149153 0.092421875,11.4223729 0.092421875,17.0254576 C0.092421875,24.1864068 5.88991406,29.991661 13.0418438,29.991661 C20.1934688,29.991661 25.9911641,24.1864068 25.9911641,17.0254576 C25.9911641,8.41566102 18.0019531,4.99291525 18.0019531,4.99291525 C18.0019531,4.99291525 16.2569063,4.26732203 15.2811953,3.6159661 C15.2811953,3.6159661 14.0485313,2.86169492 11.8999766,0.0847118644 C11.8999766,0.0847118644 11.9487266,3.23989831 8.61158594,4.8379322"/>
    <path fill="#F0F0F0" fill-rule="nonzero" d="M11.7460078,27.4818305 C11.2912109,27.1653559 11.399375,26.1575593 12.6318359,26.8775593 C12.6318359,26.8775593 15.2562109,28.8074237 19.4112344,26.4919322 C19.7343047,26.3119322 20.1302969,26.9470169 19.1030938,27.5292203 C19.1030938,27.5292203 14.9045,29.6802712 11.7460078,27.4818305 Z"/>
    <path stroke="#FFFDFF" d="M11.7460078,27.4818305 C11.2912109,27.1653559 11.399375,26.1575593 12.6318359,26.8775593 C12.6318359,26.8775593 15.2562109,28.8074237 19.4112344,26.4919322 C19.7343047,26.3119322 20.1302969,26.9470169 19.1030938,27.5292203 C19.1030938,27.5292203 14.9045,29.6802712 11.7460078,27.4818305 Z"/>
    <path fill="#F0F0F0" fill-rule="nonzero" d="M17.1000781,24.280678 C18.6280859,24.4598644 18.1027031,25.1955254 18.5126094,25.3090169 C19.3470469,25.5405763 18.9876172,24.627661 18.9876172,24.627661 C18.3711328,23.3934915 17.3055391,23.470678 17.3055391,23.470678 C15.6364609,23.2134915 14.391,24.8077627 14.391,24.8077627 C14.0827578,25.4890169 14.5138906,25.5241017 14.6733437,25.4505763 C15.4822891,25.077661 15.9743594,24.1483729 17.1000781,24.280678 Z"/>
    <path stroke="#FFFDFF" d="M17.1000781,24.280678 C18.6280859,24.4598644 18.1027031,25.1955254 18.5126094,25.3090169 C19.3470469,25.5405763 18.9876172,24.627661 18.9876172,24.627661 C18.3711328,23.3934915 17.3055391,23.470678 17.3055391,23.470678 C15.6364609,23.2134915 14.391,24.8077627 14.391,24.8077627 C14.0827578,25.4890169 14.5138906,25.5241017 14.6733437,25.4505763 C15.4822891,25.077661 15.9743594,24.1483729 17.1000781,24.280678 Z"/>
    <path fill="#008ECE" fill-rule="nonzero" d="M1.78719531,23.5454237 C1.78719531,23.5454237 6.43032813,27.3919322 17.7292578,18.8227119 C17.7292578,18.8227119 23.4044688,15.2553559 23.2334375,9.13891525 C23.2334375,9.13891525 21.3969844,6.4960678 18.2981094,5.13315254 C17.8573281,4.93922034 13.9850547,2.82355932 11.8938828,0.170440678 C11.8938828,0.170440678 11.5148516,7.86722034 1.66958594,10.9058644 C1.66958594,10.9058644 -0.81128125,14.5697288 0.541226562,20.5245763 C0.541226562,20.5245763 1.40684375,22.9388136 1.78719531,23.5455254"/>
    <path fill="#F0F0F0" fill-rule="nonzero" d="M9.15230469,24.9749492 C9.15230469,24.9749492 5.30034375,25.077661 5.76265625,20.9635932 C5.76265625,20.9635932 6.56723437,16.3352542 11.9769609,17.3637966 C11.9769609,17.3637966 13.1584375,17.6208814 15.3668125,19.3179661 C15.3668125,19.3179661 16.8241328,20.4429153 17.6265781,20.4217627 C17.6265781,20.4217627 18.2492578,20.4814576 19.5440781,19.6608814 C19.5440781,19.6608814 22.1846016,17.6205763 23.1077031,17.6810847 C23.1306562,17.6826102 24.9708672,17.4796271 24.9708672,20.4494237 C24.9708672,20.4494237 25.0049922,23.7235932 22.5399687,24.8205763 C22.5399687,24.8205763 21.8893594,25.0433898 21.1873594,24.3063051 C21.1873594,24.3063051 19.1672812,22.009322 18.1743047,21.6321356 C18.1743047,21.6321356 17.6008828,21.4071864 16.8389609,21.6835932 C16.8389609,21.6835932 16.3425234,21.7350508 14.3054844,23.0892203 C14.3054844,23.0892203 10.8813047,25.2319322 9.15230469,24.9749492 Z"/>
    <path stroke="#FFFDFF" d="M9.15230469,24.9749492 C9.15230469,24.9749492 5.30034375,25.077661 5.76265625,20.9635932 C5.76265625,20.9635932 6.56723437,16.3352542 11.9769609,17.3637966 C11.9769609,17.3637966 13.1584375,17.6208814 15.3668125,19.3179661 C15.3668125,19.3179661 16.8241328,20.4429153 17.6265781,20.4217627 C17.6265781,20.4217627 18.2492578,20.4814576 19.5440781,19.6608814 C19.5440781,19.6608814 22.1846016,17.6205763 23.1077031,17.6810847 C23.1306562,17.6826102 24.9708672,17.4796271 24.9708672,20.4494237 C24.9708672,20.4494237 25.0049922,23.7235932 22.5399687,24.8205763 C22.5399687,24.8205763 21.8893594,25.0433898 21.1873594,24.3063051 C21.1873594,24.3063051 19.1672812,22.009322 18.1743047,21.6321356 C18.1743047,21.6321356 17.6008828,21.4071864 16.8389609,21.6835932 C16.8389609,21.6835932 16.3425234,21.7350508 14.3054844,23.0892203 C14.3054844,23.0892203 10.8813047,25.2319322 9.15230469,24.9749492 Z"/>
    <path fill="#008ECE" fill-rule="nonzero" d="M11.1895469,10.215661 C13.6834141,6.63894915 11.8938828,0.0675254237 11.8938828,0.0675254237 C11.6737969,3.63294915 8.66957812,4.80955932 8.66957812,4.80955932 C3.29042188,7.13430508 1.66958594,10.8029492 1.66958594,10.8029492 C2.82232031,12.4397288 5.88239844,17.8265085 11.1895469,10.215661"/>
    <path fill="#A0D8F1" fill-rule="nonzero" d="M11.8938828,0.0675254237 C11.8938828,0.0675254237 12.2166484,3.06752542 10.5903281,4.04450847 C10.5903281,4.04450847 7.98210156,5.26016949 7.18595313,5.65871186 C7.18595313,5.65871186 3.83652344,7.68294915 2.7324375,9.58555932 C2.7324375,9.58555932 0.369890625,12.7511186 3.63126563,12.0027458 C3.63126563,12.0027458 9.529,10.3355593 11.925875,5.30440678 C11.925875,5.30440678 12.0669453,4.88023729 11.6174297,4.44305085 C11.6174297,4.44305085 13.4151875,3.08461017 11.8938828,0.0675254237"/>
    <path fill="#F0F0F0" fill-rule="nonzero" d="M11.8938828,0.0675254237 C11.8938828,0.0675254237 12.0283516,2.1160678 10.3300234,3.81335593 C10.3300234,3.81335593 9.81997656,4.53305085 7.18595312,5.65871186 C7.18595312,5.65871186 4.1705625,7.23294915 2.81866406,9.41613559 C2.81866406,9.41613559 0.815140625,11.8360678 3.56240625,11.1872542 C3.56240625,11.1872542 9.12894531,9.13311864 11.168625,5.36115254 C11.168625,5.36115254 11.4445703,4.96474576 11.0246094,4.55633898 C11.0246094,4.55633898 13.0216328,2.99461017 11.8938828,0.0675254237"/>
  </g>
</svg>
