<svg xmlns="http://www.w3.org/2000/svg" width="28" height="30" viewBox="0 0 28 30">
  <g fill="none" transform="translate(1 2)">
    <path fill="#2E3951" d="M1,13 L-1,13 C-1,5.24771525 5.24771525,-1 13,-1 C18.520196,-1 23.5226802,2.26381591 25.7138115,7.19386153 L23.8861885,8.00613847 C22.0154878,3.79706195 17.7284022,1 13,1 C6.35228475,1 1,6.35228475 1,13 Z"/>
    <path fill="#1859E6" d="M25,13 L27,13 C27,20.7522847 20.7522847,27 13,27 C7.47980404,27 2.47731984,23.7361841 0.286188451,18.8061385 L2.11381155,17.9938615 C3.98451222,22.202938 8.27159783,25 13,25 C19.6477153,25 25,19.6477153 25,13 Z"/>
    <polygon fill="#2E3951" points="25.037 -1.12 27.02 -.863 25.763 8.82 16.08 7.563 16.337 5.58 24.037 6.58"/>
    <polygon fill="#1859E6" points=".963 27.12 -1.02 26.863 .237 17.18 9.92 18.437 9.663 20.42 1.963 19.42"/>
  </g>
</svg>
