<svg xmlns="http://www.w3.org/2000/svg" width="32" height="32" viewBox="0 0 32 32">
  <g fill="none" transform="translate(1 1)">
    <path fill="#05F" d="M14.25,17.25 L16.5,17.25 L16.5,30 C16.5,30.4142136 16.1642136,30.75 15.75,30.75 C15.3357864,30.75 15,30.4142136 15,30 L15,18.75 L12.75,18.75 L12.75,13.5 L15,13.5 L15,12 C15,8.43046894 16.9443752,6 20.25,6 C21.2759156,6 22.2504751,6.15105937 23.144902,6.40311711 C23.6875299,6.55603465 24.089719,6.71187156 24.3228261,6.82303373 L24.75,7.0267409 L24.75,11.25 L22.5,11.25 C21.225306,11.25 21,11.3963466 21,12 L21,13.5 L24.9148529,13.5 L23.8648529,18.75 L21,18.75 L21,30 C21,30.4142136 20.6642136,30.75 20.25,30.75 C19.8357864,30.75 19.5,30.4142136 19.5,30 L19.5,17.25 L22.6351471,17.25 L23.0851471,15 L19.5,15 L19.5,12 C19.5,10.3981748 20.4978889,9.75 22.5,9.75 L23.25,9.75 L23.25,8.00718177 C23.105403,7.95673726 22.9339028,7.90208011 22.7380355,7.84688289 C21.969103,7.63019063 21.1291781,7.5 20.25,7.5 C17.8556248,7.5 16.5,9.19453106 16.5,12 L16.5,15 L14.25,15 L14.25,17.25 Z"/>
    <path fill="#000" d="M3,30.75 C0.929036438,30.75 -0.75,29.0709636 -0.75,27 L-0.75,3 C-0.75,0.929036438 0.929036438,-0.75 3,-0.75 L27,-0.75 C29.0709636,-0.75 30.75,0.929036438 30.75,3 L30.75,27 C30.75,29.0709636 29.0709636,30.75 27,30.75 L3,30.75 Z M3,29.25 L27,29.25 C28.2425364,29.25 29.25,28.2425364 29.25,27 L29.25,3 C29.25,1.75746356 28.2425364,0.75 27,0.75 L3,0.75 C1.75746356,0.75 0.75,1.75746356 0.75,3 L0.75,27 C0.75,28.2425364 1.75746356,29.25 3,29.25 Z"/>
  </g>
</svg>
