<svg xmlns="http://www.w3.org/2000/svg" width="34" height="34" viewBox="0 0 34 34">
  <g fill="none" transform="translate(2 2)">
    <polygon fill="#1859E6" points="10 21.414 8.586 20 20 8.586 21.414 10"/>
    <path fill="#1859E6" d="M11 14C9.34314575 14 8 12.6568542 8 11 8 9.34314575 9.34314575 8 11 8 12.6568542 8 14 9.34314575 14 11 14 12.6568542 12.6568542 14 11 14zM11 12C11.5522847 12 12 11.5522847 12 11 12 10.4477153 11.5522847 10 11 10 10.4477153 10 10 10.4477153 10 11 10 11.5522847 10.4477153 12 11 12zM19 22C17.3431458 22 16 20.6568542 16 19 16 17.3431458 17.3431458 16 19 16 20.6568542 16 22 17.3431458 22 19 22 20.6568542 20.6568542 22 19 22zM19 20C19.5522847 20 20 19.5522847 20 19 20 18.4477153 19.5522847 18 19 18 18.4477153 18 18 18.4477153 18 19 18 19.5522847 18.4477153 20 19 20z"/>
    <path fill="#2E3951" d="M27,20.3507811 L27,27 L20.3507811,27 L15,31.2806248 L9.64921894,27 L3,27 L3,20.3507811 L-1.28062485,15 L3,9.64921894 L3,3 L9.64921894,3 L15,-1.28062485 L20.3507811,3 L27,3 L27,9.64921894 L31.2806248,15 L27,20.3507811 Z M25,25 L25,19.6492189 L28.7193752,15 L25,10.3507811 L25,5 L19.6492189,5 L15,1.28062485 L10.3507811,5 L5,5 L5,10.3507811 L1.28062485,15 L5,19.6492189 L5,25 L10.3507811,25 L15,28.7193752 L19.6492189,25 L25,25 Z"/>
  </g>
</svg>
