<svg xmlns="http://www.w3.org/2000/svg" width="30" height="32" viewBox="0 0 30 32">
  <g fill="none" transform="translate(2 1)">
    <path fill="#2E3951" d="M22.1271089,9 L3.87289106,9 L1.14561833,29 L24.8543817,29 L22.1271089,9 Z M-1.14561833,31 L2.12710894,7 L23.8728911,7 L27.1456183,31 L-1.14561833,31 Z"/>
    <path fill="#1859E6" d="M9,13 L7,13 L7,5 C7,1.68671525 9.68671525,-1 13,-1 C16.3132847,-1 19,1.68671525 19,5 L19,13 L17,13 L17,5 C17,2.79128475 15.2087153,1 13,1 C10.7912847,1 9,2.79128475 9,5 L9,13 Z"/>
  </g>
</svg>
