<svg xmlns="http://www.w3.org/2000/svg" width="32" height="30" viewBox="0 0 32 30">
  <g fill="none" transform="translate(1 1)">
    <polygon fill="#2E3951" points="5 1 7 1 7 8 5 8"/>
    <polygon fill="#2E3951" points="29 27 29 10 31 10 31 29 -1 29 -1 1 25.003 1 25.003 3 1 3 1 27"/>
    <polygon fill="#2E3951" points="0 8 0 6 20.003 6 20.003 8"/>
    <path fill="#1859E6" d="M28.6748932 2.91389322C29.1123689 2.47641751 29.1123689 1.76558249 28.6748932 1.32810678 28.2374175.890631073 27.5265825.890631073 27.0891068 1.32810678L19.4172136 9 21.003 10.5857864 28.6748932 2.91389322zM16.5887864 9L25.6748932-.0861067812C26.8934175-1.30463107 28.8705825-1.30463107 30.0891068-.0861067812 31.3076311 1.13241751 31.3076311 3.10958249 30.0891068 4.32810678L21.003 13.4142136 16.5887864 9zM14.6083138 16.9349193C15.5307443 16.8258333 16.195874 16.6139124 16.4228932 16.3868932 17.1977155 15.6120709 17.1979212 14.3554702 16.4231966 13.5814101 15.647702 12.8065805 14.391633 12.8065805 13.6171068 13.5811068 13.4418382 13.7563754 13.2343998 14.4643094 13.1187956 15.4419151 13.0565766 15.9680694 13.0220849 16.5133387 13.0075498 17.0251508 13.5377562 17.0233204 14.0872764 16.9965368 14.6083138 16.9349193zM12.2028932 12.1668932C13.758367 10.6114195 16.280298 10.6114195 17.8368034 12.1665899 19.3933882 13.7218398 19.3929752 16.2452383 17.8371068 17.8011068 17.1996793 18.4385342 16.1821498 18.7627352 14.8431956 18.921079 13.9645486 19.0249872 13.0491688 19.0426724 12.2222612 19.0115606 12.090424 19.0066003 11.9935864 19.001519 11.9377682 18.9978701L11.0275345 18.9383672 11.0033515 18.0265114C11.0027843 18.0047351 11.0027843 18.0047351 11.0014024 17.923134 10.9898457 17.119079 11.0210757 16.1504406 11.1326343 15.2070468 11.3000296 13.7914694 11.5991549 12.7706316 12.2028932 12.1668932z"/>
  </g>
</svg>
