<svg xmlns="http://www.w3.org/2000/svg" width="32" height="32" viewBox="0 0 32 32">
  <g fill="none" transform="translate(1 1)">
    <path fill="#1859E6" d="M15,20 C12.2385763,20 10,17.7614237 10,15 C10,12.2385763 12.2385763,10 15,10 C17.7614237,10 20,12.2385763 20,15 C20,17.7614237 17.7614237,20 15,20 Z M15,18 C16.6568542,18 18,16.6568542 18,15 C18,13.3431458 16.6568542,12 15,12 C13.3431458,12 12,13.3431458 12,15 C12,16.6568542 13.3431458,18 15,18 Z"/>
    <path fill="#2E3951" d="M31,11 L31,19 L30,19 L26.3124473,19 C26.1470931,19.4589725 25.9892886,19.8513689 25.8229273,20.2087137 L29.1142136,23.5 L23.5,29.1142136 L20.1994767,25.8136902 C19.71452,26.047888 19.3446833,26.2118009 19,26.3382761 L19,31 L11,31 L11,26.3124473 C10.5410275,26.1470931 10.1486311,25.9892886 9.79128631,25.8229273 L6.5,29.1142136 L0.885786438,23.5 L4.18630978,20.1994767 C3.95211195,19.71452 3.78819909,19.3446833 3.66172392,19 L-1,19 L-1,11 L3.68755267,11 C3.85290693,10.5410275 4.01071141,10.1486311 4.17707274,9.79128631 L0.885786438,6.5 L6.5,0.885786438 L9.79985061,4.18563705 C10.0246182,4.07682987 10.1995792,3.99616852 10.3991812,3.90884267 C10.6071778,3.81784412 10.8063933,3.73693631 11,3.66569019 L11,-1 L19,-1 L19,3.68755267 C19.4589725,3.85290693 19.8513689,4.01071141 20.2087137,4.17707274 L23.5,0.885786438 L29.1142136,6.5 L25.8143629,9.79985061 C25.9231701,10.0246182 26.0038315,10.1995792 26.0911573,10.3991812 C26.1821559,10.6071778 26.2630637,10.8063933 26.3343098,11 L31,11 Z M29,17 L29,13 L24.8192236,13 L24.6298575,12.2425356 C24.5520828,11.9314366 24.4306188,11.5934501 24.2588427,11.2008188 C24.1221861,10.888461 23.9978637,10.6317954 23.7055728,10.0472136 L23.3832395,9.40254695 L26.2857864,6.5 L23.5,3.71421356 L20.5670216,6.647192 L19.9038611,6.26824314 C19.3493703,5.9513913 18.6978233,5.68670034 17.6837722,5.3486833 L17,5.12075922 L17,1 L13,1 L13,5.18077641 L12.2425356,5.3701425 C11.9314366,5.44791725 11.5934501,5.56938117 11.2008188,5.74115733 C10.888461,5.87781387 10.6317954,6.00213629 10.0472136,6.29442719 L9.40254695,6.61676051 L6.5,3.71421356 L3.71421356,6.5 L6.647192,9.43297844 L6.26824314,10.0961389 C5.9513913,10.6506297 5.68670034,11.3021767 5.3486833,12.3162278 L5.12075922,13 L1,13 L1,17 L5.18077641,17 L5.3701425,17.7574644 C5.51274725,18.3278834 5.72814824,18.8202285 6.29442719,19.9527864 L6.61676051,20.597453 L3.71421356,23.5 L6.5,26.2857864 L9.43297844,23.352808 L10.0961389,23.7317569 C10.6506297,24.0486087 11.3021767,24.3132997 12.3162278,24.6513167 L13,24.8792408 L13,29 L17,29 L17,24.8192236 L17.7574644,24.6298575 C18.3278834,24.4872527 18.8202285,24.2718518 19.9527864,23.7055728 L20.597453,23.3832395 L23.5,26.2857864 L26.2857864,23.5 L23.352808,20.5670216 L23.7317569,19.9038611 C24.0486087,19.3493703 24.3132997,18.6978233 24.6513167,17.6837722 L24.8792408,17 L29,17 Z"/>
  </g>
</svg>
