<svg xmlns="http://www.w3.org/2000/svg" width="32" height="31" viewBox="0 0 32 31">
  <g fill="none" transform="translate(2 2)">
    <polygon fill="#1859E6" points="21.707 26.707 20.293 25.293 26.293 19.293 27.707 20.707"/>
    <polygon fill="#1859E6" points="9.293 2.293 10.707 3.707 4.707 9.707 3.293 8.293"/>
    <polygon fill="#1859E6" points="2.414 6 8.914 12.5 7.5 13.914 -.414 6 7 -1.414 14.914 6.5 13.5 7.914 7 1.414"/>
    <polygon fill="#1859E6" points="19.086 13.5 20.5 12.086 27.943 19.529 29.179 28.179 20.529 26.943 13.086 19.5 14.5 18.086 21.471 25.057 26.821 25.821 26.057 20.471"/>
    <path fill="#2E3951" d="M0.357572482,9.55018433 L0.357572482,17.4491086 L26.6413204,17.4491086 L26.6413204,9.55018433 L0.357572482,9.55018433 Z M28.6413012,7.55020351 L28.6413012,19.4490894 L-1.64240834,19.4490894 L-1.64240834,7.55020351 L28.6413012,7.55020351 Z" transform="rotate(-45 13.5 13.5)"/>
    <polygon fill="#2E3951" points="8.586 10 10 8.586 14.414 13 13 14.414"/>
    <polygon fill="#2E3951" points="5.586 13 7 11.586 10.414 15 9 16.414"/>
    <polygon fill="#2E3951" points="14.586 4 16 2.586 20.414 7 19 8.414"/>
    <polygon fill="#2E3951" points="11.586 7 13 5.586 16.414 9 15 10.414"/>
    <polygon fill="#2E3951" points="2.586 16 4 14.586 8.414 19 7 20.414"/>
  </g>
</svg>
