<svg xmlns="http://www.w3.org/2000/svg" width="143" height="32" viewBox="0 0 143 32">
  <g fill="#FFF" fill-rule="evenodd" transform="translate(2 3)">
    <path d="M51.08,21 L47.4,21 L47.4,5.416 L50.952,5.416 L50.952,7.4 C51.848,5.8 53.8,4.968 55.56,4.968 C57.608,4.968 59.4,5.896 60.232,7.72 C61.448,5.672 63.272,4.968 65.288,4.968 C68.104,4.968 70.792,6.76 70.792,10.888 L70.792,21 L67.208,21 L67.208,11.496 C67.208,9.672 66.28,8.296 64.2,8.296 C62.248,8.296 60.968,9.832 60.968,11.752 L60.968,21 L57.32,21 L57.32,11.496 C57.32,9.704 56.424,8.296 54.312,8.296 C52.328,8.296 51.08,9.768 51.08,11.752 L51.08,21 Z M74.376,16.776 C74.376,13.992 76.424,12.456 79.08,12.072 L83.08,11.464 C83.976,11.336 84.232,10.888 84.232,10.344 C84.232,9.032 83.336,7.976 81.288,7.976 C79.336,7.976 78.248,9.224 78.088,10.792 L74.696,10.024 C74.984,7.336 77.416,4.936 81.256,4.936 C86.056,4.936 87.88,7.656 87.88,10.76 L87.88,18.504 C87.88,19.912 88.04,20.84 88.072,21 L84.616,21 C84.584,20.904 84.456,20.264 84.456,19.016 C83.72,20.2 82.184,21.48 79.656,21.48 C76.392,21.48 74.376,19.24 74.376,16.776 Z M80.36,18.568 C82.44,18.568 84.232,17.576 84.232,14.536 L84.232,13.832 L80.168,14.44 C79.016,14.632 78.088,15.272 78.088,16.552 C78.088,17.608 78.888,18.568 80.36,18.568 Z M96.04,27.08 L92.36,27.08 L92.36,5.416 L95.944,5.416 L95.944,7.528 C96.712,6.184 98.504,5.064 100.904,5.064 C105.512,5.064 108.104,8.584 108.104,13.192 C108.104,17.864 105.256,21.384 100.776,21.384 C98.536,21.384 96.84,20.424 96.04,19.24 L96.04,27.08 Z M104.392,13.192 C104.392,10.28 102.696,8.36 100.2,8.36 C97.768,8.36 96.008,10.28 96.008,13.192 C96.008,16.168 97.768,18.088 100.2,18.088 C102.664,18.088 104.392,16.168 104.392,13.192 Z M115.368,27.08 L111.688,27.08 L111.688,5.416 L115.272,5.416 L115.272,7.528 C116.04,6.184 117.832,5.064 120.232,5.064 C124.84,5.064 127.432,8.584 127.432,13.192 C127.432,17.864 124.584,21.384 120.104,21.384 C117.864,21.384 116.168,20.424 115.368,19.24 L115.368,27.08 Z M123.72,13.192 C123.72,10.28 122.024,8.36 119.528,8.36 C117.096,8.36 115.336,10.28 115.336,13.192 C115.336,16.168 117.096,18.088 119.528,18.088 C121.992,18.088 123.72,16.168 123.72,13.192 Z M140.136,5.32 L140.136,9.096 C139.72,9.032 139.304,9 138.92,9 C136.04,9 134.728,10.664 134.728,13.576 L134.728,21 L131.016,21 L131.016,5.416 L134.632,5.416 L134.632,7.912 C135.368,6.216 137.096,5.224 139.144,5.224 C139.592,5.224 139.976,5.288 140.136,5.32 Z"/>
    <g fill-rule="nonzero">
      <path d="M19.7354553,2.33856777 L30.5,-2.27480852 L30.5,23.3981851 L19.8099992,27.979614 L9.26454468,24.0250686 L-1.5,28.6384449 L-1.5,2.96545122 L9.19000077,-1.61597769 L19.7354553,2.33856777 Z M27.5,2.27480852 L19.8099992,5.57052314 L9.26454468,1.61597769 L1.5,4.94363969 L1.5,24.0888278 L9.19000077,20.7931132 L19.7354553,24.7476587 L27.5,21.4199967 L27.5,2.27480852 Z"/>
      <polygon points="21.273 26.364 18.273 26.364 18.273 3.955 21.273 3.955"/>
      <polygon points="10.727 22.409 7.727 22.409 7.727 0 10.727 0"/>
    </g>
  </g>
</svg>
