<svg xmlns="http://www.w3.org/2000/svg" width="27" height="31" viewBox="0 0 27 31">
  <g fill="none">
    <path fill="#95BF46" d="M23.6481476,6.03581092 C23.6269025,5.8800095 23.4917165,5.79378516 23.3799951,5.78428767 C23.2684852,5.7748969 20.9084902,5.59828639 20.9084902,5.59828639 C20.9084902,5.59828639 19.2694521,3.95543515 19.0895564,3.77359569 C18.909555,3.59186294 18.5580079,3.64714043 18.4215535,3.68769148 C18.4014711,3.69366743 18.0634532,3.79899345 17.5043179,3.97368312 C16.9568092,2.38301469 15.9905304,0.921255912 14.290611,0.921255912 C14.2436817,0.921255912 14.1953783,0.923176752 14.1470749,0.925951297 C13.6636184,0.28044255 13.0647412,0 12.5474617,0 C8.58753641,0 6.69567192,4.99791737 6.10250227,7.53769389 C4.56377032,8.01907758 3.47065548,8.36130713 3.33103019,8.40559315 C2.47213914,8.67760535 2.4449751,8.70492396 2.33219677,9.52202769 C2.24732235,10.1406447 0,27.6874058 0,27.6874058 L17.511611,31 L27,28.9276277 C27,28.9276277 23.6691812,6.19161233 23.6482533,6.03581092 L23.6481476,6.03581092 Z M16.5364536,4.27589519 L15.0546921,4.73892419 C15.0552206,4.63349145 15.0557491,4.52976613 15.0557491,4.41632989 C15.0557491,3.42773788 14.9198232,2.63176339 14.701771,2.00076765 C15.5776792,2.11174948 16.1610191,3.11794918 16.5364536,4.27589519 Z M13.6152094,2.19679998 C13.8587345,2.81285585 14.0170681,3.69697554 14.0170681,4.89003022 C14.0170681,4.95107023 14.0165396,5.00688129 14.0160111,5.06333262 C13.0523747,5.36469098 12.0052379,5.69187395 10.9557757,6.02012406 C11.5450346,3.72408072 12.6495647,2.61511611 13.6152094,2.19679998 Z M12.4386999,1.07236194 C12.6096113,1.07236194 12.7817912,1.13094755 12.9465723,1.24545092 C11.6774725,1.84838106 10.3171565,3.3669113 9.74269519,6.39938313 L7.32372146,7.15576699 C7.99658639,4.84275623 9.59429708,1.07236194 12.4385942,1.07236194 L12.4386999,1.07236194 Z"/>
    <path fill="#5E8E3E" d="M23.2538389,6.17404328 C23.1384429,6.16479758 20.6962027,5.99091544 20.6962027,5.99091544 C20.6962027,5.99091544 19.0000446,4.37344382 18.8138795,4.19441351 C18.7442044,4.12780247 18.6502468,4.09365643 18.5520234,4.07894737 L17.1818182,31 L27,28.9598529 C27,28.9598529 23.5529937,6.57507538 23.5313364,6.42168086 C23.509351,6.26828635 23.3694538,6.18339404 23.2538389,6.17404328"/>
    <path fill="#FFF" d="M13.9090909,11.0615446 L12.7772817,14.5247816 C12.7772817,14.5247816 11.7856577,13.9803573 10.5701054,13.9803573 C8.78808613,13.9803573 8.69841256,15.1307377 8.69841256,15.4206205 C8.69841256,17.002354 12.7066267,17.6084152 12.7066267,21.3133615 C12.7066267,24.2282825 10.9093721,26.1052632 8.48603857,26.1052632 C5.57803833,26.1052632 4.09090909,24.243534 4.09090909,24.243534 L4.86954558,21.5971438 C4.86954558,21.5971438 6.39818846,22.9471604 7.68807676,22.9471604 C8.53092647,22.9471604 8.87377193,22.2645263 8.87377193,21.7657512 C8.87377193,19.7024924 5.58540035,19.6104578 5.58540035,16.2201122 C5.58540035,13.3666178 7.57641936,10.6052632 11.595472,10.6052632 C13.1440537,10.6052632 13.9090909,11.0615446 13.9090909,11.0615446"/>
  </g>
</svg>
