<svg xmlns="http://www.w3.org/2000/svg" width="30" height="24" viewBox="0 0 30 24">
  <path fill="#1A1918" d="M19.0617442,4.78470588 C18.5009302,4.21717647 17.5915116,4.21717647 17.0310465,4.78470588 L7.89186047,14.0315294 C6.76965116,15.166 4.95151163,15.166 3.83011628,14.0315294 C2.70755814,12.8965882 2.70755814,11.0568235 3.83011628,9.92129412 L12.7933721,0.852941176 C11.6717442,-0.282235294 9.85290698,-0.282235294 8.73127907,0.852941176 L1.79848837,7.86705882 C-0.444534884,10.1369412 -0.444534884,13.8164706 1.79848837,16.0865882 C4.04209302,18.3565882 7.67872093,18.3565882 9.92232558,16.0865882 L19.0617442,6.83964706 C19.6222093,6.27223529 19.6222093,5.35211765 19.0617442,4.78470588 Z M22.1081395,1.70270588 C19.8645349,-0.567529412 16.227907,-0.567529412 13.9843023,1.70270588 L4.84534884,10.9490588 C4.28488372,11.5161176 4.28488372,12.4368235 4.84534884,13.004 C5.40616279,13.5714118 6.31511628,13.5714118 6.87604651,13.004 L16.015814,3.75764706 C17.1374419,2.62247059 18.9555814,2.62247059 20.0769767,3.75764706 C20.6383721,4.32470588 21.5474419,4.32470588 22.1082558,3.75764706 C22.6690698,3.18964706 22.6690698,2.27011765 22.1082558,1.70270588 L22.1081395,1.70270588 Z M25.1547674,10.9490588 C24.5939535,10.3822353 23.6843023,10.3822353 23.1234884,10.9490588 L13.9843023,20.1957647 C12.8626744,21.3305882 11.0439535,21.3305882 9.92232558,20.1957647 C9.36186047,19.6287059 8.45267442,19.6287059 7.89186047,20.1957647 C7.33023256,20.7634118 7.33023256,21.6835294 7.89186047,22.2503529 C10.1345349,24.5203529 13.772093,24.5203529 16.0156977,22.2503529 L25.1547674,13.004 C25.7152326,12.4369412 25.7152326,11.5162353 25.1547674,10.9490588 Z M28.2015116,7.86717647 C25.957907,5.59752941 22.3206977,5.59752941 20.0776744,7.86717647 L10.937907,17.1141176 C10.377093,17.6809412 10.377093,18.6016471 10.937907,19.1687059 C11.4990698,19.7364706 12.4084884,19.7364706 12.9689535,19.1687059 L22.1081395,9.922 C23.2294186,8.78694118 25.0484884,8.78694118 26.1698837,9.922 C27.2915116,11.0569412 27.2915116,12.8967059 26.1698837,14.0316471 L17.2066279,23.1005882 C18.3282558,24.2350588 20.1461628,24.2350588 21.2687209,23.1005882 L28.2015116,16.0864706 C30.4445349,13.8162353 30.4445349,10.1368235 28.2015116,7.86717647 Z"/>
</svg>
